# AST/ASF file generated using VICON BodyLanguage
# -----------------------------------------------
:version 1.10
:name VICON
:units
  mass 1.0
  length 0.45
  angle deg
:documentation
   .ast/.asf automatically generated from VICON data using
   VICON BodyBuilder and BodyLanguage model FoxedUp or BRILLIANT.MOD
:root
   order TX TY TZ RX RY RZ
   axis XYZ
   position 0 0 0  
   orientation 0 0 0 
:bonedata
  begin
     id 1 
     name lhipjoint
     direction 0.62366 -0.717238 0.310833 
     length 2.53602 
     axis 0 0 0  XYZ
  end
  begin
     id 2 
     name lfemur
     direction 0.34202 -0.939693 0  
     length 7.40817  
     axis 0 0 20  XYZ
    dof rx ry rz
    limits (-160.0 20.0)
           (-70.0 70.0)
           (-60.0 70.0)
  end
  begin
     id 3 
     name ltibia
     direction 0.34202 -0.939693 0   
     length 7.7045   
     axis 0 0 20   XYZ
    dof rx
    limits (-10.0 170.0)
  end
  begin
     id 4 
     name lfoot
     direction 0.0673888 -0.185149 0.980397   
     length 2.09456   
     axis -90 7.62852e-016 20   XYZ
    dof rx rz
    limits (-45.0 90.0)
           (-70.0 20.0)
  end
  begin
     id 5 
     name ltoes
     direction 1.53575e-011 -4.21994e-011 1   
     length 1.05543   
     axis -90 7.62852e-016 20   XYZ
    dof rx
    limits (-90.0 20.0)
  end
  begin
     id 6 
     name rhipjoint
     direction -0.489018 -0.800347 0.346851   
     length 2.27268  
     axis 0 0 0  XYZ 
  end
  begin
     id 7 
     name rfemur
     direction -0.34202 -0.939693 0   
     length 7.55487   
     axis 0 0 -20   XYZ
    dof rx ry rz
    limits (-160.0 20.0)
           (-70.0 70.0)
           (-70.0 60.0)
  end
  begin
     id 8 
     name rtibia
     direction -0.34202 -0.939693 0   
     length 7.78969   
     axis 0 0 -20   XYZ
    dof rx
    limits (-10.0 170.0)
 end
 begin
     id 9 
     name rfoot
     direction -0.0859318 -0.236096 0.967923   
     length 2.19143  
     axis -90 -7.62852e-016 -20   XYZ
    dof rx rz
    limits (-45.0 90.0)
           (-20.0 70.0)
  end
  begin
     id 10 
     name rtoes
     direction -1.53538e-011 -4.21989e-011 1   
     length 1.09845   
     axis -90 -7.62852e-016 -20   XYZ
    dof rx
    limits (-90.0 20.0)
  end
  begin
     id 11 
     name lowerback
     direction -0.00762546 0.998978 -0.0445553   
     length 1.98161   
     axis 0 0 0   XYZ
    dof rx ry rz
    limits (-20.0 45.0)
           (-30.0 30.0)
           (-30.0 30.0)
  end
  begin
     id 12 
     name upperback
     direction 0.0422361 0.998867 -0.0219156   
     length 1.97558   
     axis 0 0 0   XYZ
    dof rx ry rz
    limits (-20.0 45.0)
           (-30.0 30.0)
           (-30.0 30.0)
  end
  begin
     id 13 
     name thorax
     direction 0.0442465 0.999021 7.47603e-005   
     length 1.97799   
     axis 0 0 0   XYZ
    dof rx ry rz
    limits (-20.0 45.0)
           (-30.0 30.0)
           (-30.0 30.0)
  end
  begin
     id 14 
     name lowerneck
     direction 0.00312169 0.984641 0.174564   
     length 1.78995   
     axis 0 0 0   XYZ
    dof rx ry rz
    limits (-20.0 45.0)
           (-30.0 30.0)
           (-30.0 30.0)
  end
  begin
     id 15 
     name upperneck
     direction -0.0383028 0.985255 -0.166749   
     length 1.83053   
     axis 0 0 0   XYZ
    dof rx ry rz
    limits (-20.0 45.0)
           (-30.0 30.0)
           (-30.0 30.0)
  end
  begin
     id 16
     name head
     direction -0.0129546 0.997059 -0.0755386  
     length 1.84088  
     axis 0 0 0   XYZ
    dof rx ry rz
    limits (-20.0 45.0)
           (-30.0 30.0)
           (-30.0 30.0)
  end
  begin
     id 17 
     name lclavicle
     direction 0.912857 0.370519 -0.171488  
     length 3.51279  
     axis 0 0 0   XYZ
    dof ry rz
    limits (-20.0 10.0)
           (0.0 20.0)
  end
  begin
     id 18 
     name lhumerus
     direction 1 -4.48962e-011 3.64361e-027   
     length 4.95663   
     axis 180 -30 -90   XYZ
    dof rx ry rz
    limits (-60.0 90.0)
           (-90.0 90.0)
           (-90.0 90.0)
  end
  begin
     id 19
     name lradius
     direction 1 -4.48974e-011 5.97202e-027   
     length 3.38177   
     axis 180 -30 -90   XYZ
    dof rx
    limits (-10.0 170.0)
  end
  begin
     id 20
     name lwrist
     direction 1 -4.4896e-011 9.83288e-027   
     length 1.69088   
     axis -9.31221e-015 90 90   XYZ
    dof ry
    limits (-180.0 0.0)
 end
  begin
     id 21 
     name lhand
     direction 1 -4.4902e-011 1.96551e-026   
     length 0.662909   
     axis -1.25475e-014 90 90   XYZ
    dof rx rz
    limits (-90.0 90.0)
           (-45.0 45.0)
  end
  begin
     id 22 
     name lfingers
     direction 1 -4.48971e-011 3.93277e-026   
     length 0.534454   
     axis -2.50945e-014 90 90   XYZ
    dof rx
    limits (0.0 90.0)
  end
  begin
     id 23
     name lthumb
     direction 0.707107 -6.34933e-011 0.707107   
     length 0.767373   
     axis -90 45 -4.80359e-014   XYZ
    dof rx rz
    limits (-45.0 45.0)
           (-45.0 45.0)
  end
  begin
     id 24 
     name rclavicle
     direction -0.900919 0.395364 -0.178976   
     length 3.40627  
     axis 0 0 0   XYZ 
    dof ry rz
    limits (-10.0 20.0)
           (-20.0 0.0)
  end
  begin
     id 25 
     name rhumerus
     direction -1 -4.48969e-011 1.03875e-027  
     length 5.08365   
     axis 180 30 90   XYZ
    dof rx ry rz
    limits (-90.0 60.0)
           (-90.0 90.0)
           (-90.0 90.0)
  end
  begin
     id 26 
     name rradius
     direction -1 -4.48951e-011 5.02733e-027   
     length 3.35984   
     axis 180 30 90   XYZ
    dof rx
    limits (-10.0 170.0)
  end
  begin
     id 27 
     name rwrist
     direction -1 -4.49011e-011 9.82828e-027   
     length 1.67992   
     axis -9.31221e-015 -90 -90   XYZ
    dof ry
    limits (-180.0 0.0)
  end
  begin
     id 28
     name rhand
     direction -1 -4.48894e-011 1.96774e-026   
     length 0.820764   
     axis -1.25475e-014 -90 -90   XYZ
    dof rx rz
    limits (-90.0 90.0)
           (-45.0 45.0)
  end
  begin
     id 29
     name rfingers
     direction -1 -4.49095e-011 3.92833e-026   
     length 0.661721   
     axis -2.50945e-014 -90 -90   XYZ
    dof rx
    limits (0.0 90.0)
  end
  begin
     id 30
     name rthumb
     direction -0.707107 -6.34881e-011 0.707107   
     length 0.950103   
     axis -90 -45 4.80359e-014   XYZ
    dof rx rz
    limits (-45.0 45.0)
           (-45.0 45.0)
  end
:hierarchy
  begin
    root lhipjoint rhipjoint lowerback
    lhipjoint lfemur
    lfemur ltibia
    ltibia lfoot
    lfoot ltoes
    rhipjoint rfemur
    rfemur rtibia
    rtibia rfoot
    rfoot rtoes
    lowerback upperback
    upperback thorax
    thorax lowerneck lclavicle rclavicle
    lowerneck upperneck
    upperneck head
    lclavicle lhumerus
    lhumerus lradius
    lradius lwrist
    lwrist lhand lthumb
    lhand lfingers
    rclavicle rhumerus
    rhumerus rradius
    rradius rwrist
    rwrist rhand rthumb
    rhand rfingers
  end

#!OML:ASF I:\golf\golf\golf 2\Subject 1\2002-09-07\Subject1.ASF
:FULLY-SPECIFIED
:DEGREES
61
root -6.27444 17.8167 0.189499 -87.6102 85.8515 -103.579
lowerback 1.24141 1.73244 -1.02049
upperback 3.39378 2.33911 4.50476
thorax 2.57165 1.13047 5.25735
lowerneck -17.3758 -1.44402 0.984862
upperneck 40.8745 0.895869 -3.36448
head 18.2669 0.621552 -1.38921
rclavicle 1.07344e-014 1.66979e-014
rhumerus -5.95667 2.20417 -101.898
rradius 22.9193
rwrist -39.5172
rhand -18.3324 -11.796
rfingers 7.12502
rthumb 7.94951 -41.6265
lclavicle 1.07344e-014 1.66979e-014
lhumerus -8.0284 -48.8137 109.158
lradius 22.9051
lwrist 42.5194
lhand -7.40881 70.8481
lfingers 7.12502
lthumb -161.522 80.0095
rfemur -28.727 -1.19258 12.77
rtibia 28.0678
rfoot -9.33444 -10.4473
rtoes -4.85296
lfemur -28.3288 8.4732 -8.10959
ltibia 28.3871
lfoot -11.7507 -2.49255
ltoes -21.8872
62
root -6.28086 17.8113 0.194374 -85.4022 85.9143 -101.35
lowerback 1.35426 1.77618 -1.06787
upperback 3.39558 2.39849 4.44777
thorax 2.5045 1.16029 5.22003
lowerneck -17.4069 -1.43555 0.892745
upperneck 40.8695 0.90496 -3.28063
head 18.2723 0.620814 -1.33168
rclavicle -2.38542e-014 -6.44062e-014
rhumerus -6.44284 2.76234 -101.899
rradius 23.8007
rwrist -40.4229
rhand -18.6412 -12.2216
rfingers 7.12502
rthumb 7.65146 -42.0632
lclavicle -2.38542e-014 -6.44062e-014
lhumerus -7.96098 -50.461 108.759
lradius 23.0728
lwrist 43.3661
lhand -6.2942 69.9877
lfingers 7.12502
lthumb -160.45 80.9751
rfemur -28.9394 -1.11597 12.7228
rtibia 28.3665
rfoot -9.36552 -10.2277
rtoes -4.9356
lfemur -28.3813 8.80276 -8.21856
ltibia 28.4243
lfoot -11.7223 -2.51975
ltoes -23.1237
63
root -6.28987 17.8042 0.20253 -81.4876 85.8936 -97.4099
lowerback 1.52338 1.8656 -1.08559
upperback 3.37612 2.51986 4.39203
thorax 2.37881 1.22322 5.16389
lowerneck -17.4489 -1.42647 0.883265
upperneck 40.903 0.918753 -3.26325
head 18.3042 0.627155 -1.32003
rclavicle -3.81667e-014 -1.43125e-014
rhumerus -7.00506 3.88379 -101.96
rradius 24.8146
rwrist -42.3105
rhand -19.6757 -12.3146
rfingers 7.12502
rthumb 6.65286 -42.1901
lclavicle -3.81667e-014 -1.43125e-014
lhumerus -7.9148 -52.2363 108.376
lradius 23.204
lwrist 44.1794
lhand -5.47081 69.592
lfingers 7.12502
lthumb -159.659 81.4532
rfemur -29.2011 -0.81986 12.7375
rtibia 28.6982
rfoot -9.45961 -10.0876
rtoes -4.73198
lfemur -28.325 9.19283 -8.19063
ltibia 28.4758
lfoot -11.7415 -2.63679
ltoes -22.9786
64
root -6.29801 17.7954 0.213661 -76.5075 85.8469 -92.4413
lowerback 1.66404 1.98048 -1.17349
upperback 3.33245 2.67434 4.33839
thorax 2.23808 1.30125 5.14947
lowerneck -17.4711 -1.42828 0.840109
upperneck 40.939 0.917006 -3.21633
head 18.3314 0.626602 -1.29123
rclavicle -2.50469e-014 -8.74653e-015
rhumerus -7.53729 4.98322 -102.154
rradius 25.878
rwrist -45.1496
rhand -21.7875 -12.0586
rfingers 7.12502
rthumb 4.61401 -41.9883
lclavicle -2.50469e-014 -8.74653e-015
lhumerus -7.91047 -54.4003 108.024
lradius 23.529
lwrist 45.0732
lhand -5.05177 70.0152
lfingers 7.12502
lthumb -159.256 81.0735
rfemur -29.5222 -0.453881 12.7592
rtibia 29.0304
rfoot -9.56267 -9.98366
rtoes -4.57068
lfemur -28.2863 9.58036 -8.13726
ltibia 28.5577
lfoot -11.7943 -2.69276
ltoes -22.8332
65
root -6.30482 17.7889 0.225156 -70.8458 85.8725 -86.7889
lowerback 1.79428 2.06493 -1.4421
upperback 3.29344 2.78618 4.28609
thorax 2.10418 1.35339 5.23928
lowerneck -17.4733 -1.40764 0.718017
upperneck 40.9573 0.958226 -3.12659
head 18.3441 0.635487 -1.21911
rclavicle 2.46493e-014 4.77083e-014
rhumerus -7.92747 5.09241 -102.282
rradius 26.5758
rwrist -46.0329
rhand -22.4327 -12.2525
rfingers 7.12502
rthumb 3.99092 -42.1949
lclavicle 2.46493e-014 4.77083e-014
lhumerus -7.91333 -56.5077 107.627
lradius 23.9526
lwrist 45.8759
lhand -4.54981 70.5456
lfingers 7.12502
lthumb -158.774 80.5965
rfemur -29.847 -0.0981717 12.6677
rtibia 29.346
rfoot -9.59129 -9.94078
rtoes -4.7612
lfemur -28.2676 9.8782 -8.18914
ltibia 28.6749
lfoot -11.8716 -2.61582
ltoes -22.7659
66
root -6.31287 17.7845 0.237315 -64.2782 85.8696 -80.1897
lowerback 1.99304 2.15612 -1.74611
upperback 3.26446 2.90581 4.21347
thorax 1.94003 1.40966 5.32452
lowerneck -17.4973 -1.38813 0.561132
upperneck 40.9809 0.998235 -3.01001
head 18.3656 0.641355 -1.12863
rclavicle -7.55382e-015 2.22639e-014
rhumerus -8.42085 5.37626 -102.372
rradius 27.4731
rwrist -47.0849
rhand -23.0319 -12.5525
rfingers 7.12502
rthumb 3.41232 -42.5049
lclavicle -7.55382e-015 2.22639e-014
lhumerus -8.01317 -58.4786 107.229
lradius 24.4172
lwrist 46.6081
lhand -3.77146 70.4435
lfingers 7.12502
lthumb -158.027 80.7845
rfemur -30.1361 0.298497 12.5611
rtibia 29.652
rfoot -9.44563 -9.90542
rtoes -5.19245
lfemur -28.1783 10.0666 -8.24279
ltibia 28.79
lfoot -11.9242 -2.32714
ltoes -23.2317
67
root -6.32232 17.7789 0.250587 -57.9735 85.7762 -73.8564
lowerback 2.24825 2.24401 -2.03223
upperback 3.21069 3.02007 4.15798
thorax 1.71844 1.46571 5.41347
lowerneck -17.5064 -1.35232 0.434421
upperneck 40.9806 1.07451 -2.95204
head 18.3704 0.657664 -1.06362
rclavicle -7.95139e-016 -1.59028e-014
rhumerus -8.97855 5.77046 -102.457
rradius 28.4811
rwrist -48.2202
rhand -23.8646 -12.9531
rfingers 7.12502
rthumb 2.60814 -42.9169
lclavicle -7.95139e-016 -1.59028e-014
lhumerus -8.15086 -60.3885 106.897
lradius 24.8985
lwrist 47.5158
lhand -3.17036 70.1928
lfingers 7.12502
lthumb -157.45 81.1042
rfemur -30.4236 0.662225 12.5239
rtibia 29.9472
rfoot -9.31539 -9.75613
rtoes -5.36905
lfemur -28.0813 10.1825 -8.2348
ltibia 28.8877
lfoot -11.9548 -1.92552
ltoes -24.0102
68
root -6.33204 17.7717 0.266844 -52.0198 85.6049 -67.8888
lowerback 2.47556 2.32014 -2.32984
upperback 3.16436 3.11657 4.10694
thorax 1.52071 1.51262 5.51483
lowerneck -17.454 -1.27563 0.421487
upperneck 40.8685 1.20276 -3.00783
head 18.2944 0.693765 -1.06124
rclavicle 4.69132e-014 7.15625e-015
rhumerus -9.37162 5.57538 -102.617
rradius 29.2432
rwrist -48.7399
rhand -24.5912 -13.1938
rfingers 7.12502
rthumb 1.90637 -43.165
lclavicle 4.69132e-014 7.15625e-015
lhumerus -8.10322 -62.3027 106.418
lradius 25.3617
lwrist 48.5681
lhand -2.74259 70.2692
lfingers 7.12502
lthumb -157.039 81.0782
rfemur -30.7228 1.07517 12.498
rtibia 30.2237
rfoot -9.40557 -9.54586
rtoes -4.83155
lfemur -27.9843 10.3045 -8.18061
ltibia 28.987
lfoot -12.0051 -1.55773
ltoes -24.074
69
root -6.34074 17.7669 0.287935 -44.8977 85.3287 -60.7212
lowerback 2.66335 2.43189 -2.64829
upperback 3.16616 3.2571 3.96711
thorax 1.39286 1.57942 5.53665
lowerneck -17.4455 -1.17851 0.494216
upperneck 40.7461 1.31729 -3.04921
head 18.2238 0.737759 -1.07094
rclavicle -1.19271e-014 -4.53229e-014
rhumerus -9.64415 5.06723 -102.868
rradius 29.9316
rwrist -49.1864
rhand -25.1491 -13.2883
rfingers 7.12502
rthumb 1.36754 -43.2636
lclavicle -1.19271e-014 -4.53229e-014
lhumerus -7.84707 -64.4115 105.635
lradius 25.8481
lwrist 49.5049
lhand -2.11995 69.9543
lfingers 7.12502
lthumb -156.442 81.4685
rfemur -30.9959 1.65816 12.4122
rtibia 30.4788
rfoot -9.49804 -9.23614
rtoes -3.80561
lfemur -27.7835 10.5145 -8.14068
ltibia 29.0707
lfoot -12.049 -1.16695
ltoes -24.1452
70
root -6.34943 17.7637 0.308691 -39.1137 85.0128 -54.8591
lowerback 2.86778 2.53062 -2.84986
upperback 3.17849 3.37981 3.75986
thorax 1.27803 1.63942 5.42068
lowerneck -17.4961 -1.0846 0.522336
upperneck 40.7347 1.39647 -2.94395
head 18.2318 0.783306 -1.01211
rclavicle -9.0447e-014 -1.43125e-014
rhumerus -9.95727 4.91493 -103.139
rradius 30.7931
rwrist -50.0704
rhand -26.0382 -13.5662
rfingers 7.12502
rthumb 0.50881 -43.5453
lclavicle -9.0447e-014 -1.43125e-014
lhumerus -7.54457 -66.4914 104.751
lradius 26.3453
lwrist 50.1763
lhand -1.21141 70.2748
lfingers 7.12502
lthumb -155.57 81.2628
rfemur -31.2148 2.24172 12.3413
rtibia 30.7098
rfoot -9.49649 -9.03283
rtoes -3.03967
lfemur -27.4937 10.6274 -8.06881
ltibia 29.1039
lfoot -12.0985 -0.735687
ltoes -24.3362
71
root -6.35935 17.7612 0.327789 -35.2243 84.6604 -50.9613
lowerback 2.96469 2.59283 -2.94115
upperback 3.19996 3.45702 3.58584
thorax 1.24224 1.67682 5.28376
lowerneck -17.553 -0.974955 0.509335
upperneck 40.7051 1.51129 -2.83424
head 18.2318 0.836377 -0.936506
rclavicle 2.18663e-015 0
rhumerus -10.2433 5.07946 -103.331
rradius 31.7365
rwrist -51.1039
rhand -27.0911 -13.7964
rfingers 7.12502
rthumb -0.508085 -43.7756
lclavicle 2.18663e-015 0
lhumerus -7.0116 -68.4289 103.678
lradius 26.8025
lwrist 50.6215
lhand -0.0579853 70.8297
lfingers 7.12502
lthumb -154.465 80.8616
rfemur -31.4978 2.76651 12.3491
rtibia 30.8875
rfoot -9.52055 -8.97422
rtoes -2.15344
lfemur -27.2836 10.6498 -7.91311
ltibia 29.1
lfoot -12.1261 -0.280956
ltoes -23.7582
